<svg xmlns="http://www.w3.org/2000/svg" xmlns:xlink="http://www.w3.org/1999/xlink" width="1417.92" height="750.96" viewBox="0 0 1420 760">
 <g>
  <title>Layer 1</title>
  <rect fill="#fff" stroke-width="10" x="5" y="5" width="1407.50259" height="741.25124" id="svg_7" stroke="#000"/>
  <path fill="#fff" stroke="#000" stroke-width="10" opacity="undefined" d="m1075.74865,610.24902c-134.80662,0 -243.99999,-112.54973 -243.99999,-251.50001c0,-138.95028 109.19336,-251.50001 243.99999,-251.50001c134.80662,0 243.99999,112.54973 243.99999,251.50001c0,138.95028 -109.19336,251.50001 -243.99999,251.50001z" id="svg_4"/>
  <ellipse fill="#fff" stroke="#000" cx="1076.24866" cy="373.249" id="svg_1" rx="191.5" ry="190" stroke-width="10"/>
  <ellipse fill="#fff" cx="1075.74865" cy="383.749" id="svg_2" rx="141.99999" ry="140.5" stroke-width="10" stroke="#000"/>
  <path fill="#fff" stroke-width="10" d="m1055.80417,472.52829c-28.88157,-9.51195 -49.58292,-39.73597 -44.87833,-65.52254c2.96657,-16.26039 65.55372,-114.97228 71.01956,-112.01148c1.78398,0.96636 17.65915,23.98025 35.27816,51.14197c28.2238,43.51022 32.03454,51.62353 32.03454,68.20355c0,33.607 -30.68682,61.13495 -67.53271,60.58097c-10.75215,-0.16168 -22.41671,-1.23829 -25.92122,-2.39247l0,-0.00001l0,0.00001zm28.93607,-16.90309c0.95599,-4.35091 -1.27716,-6.47283 -6.8122,-6.47283c-12.61493,0 -30.1139,-14.0036 -34.02343,-27.22733c-4.17041,-14.10613 -15.22803,-15.78377 -16.8613,-2.55815c-3.14672,25.48104 52.39564,60.38534 57.69693,36.25832l0.00001,0l-0.00001,-0.00001z" id="svg_5" stroke="#000"/>
  <rect stroke-dasharray="5,2,2,2,2,2" stroke-width="10" stroke="#000" fill="#fff" x="38.25007" y="485.25084" width="750.25132" height="32.50006" id="svg_9"/>
  <rect fill="#fff" stroke-width="8" x="102.50019" y="116.25021" width="615.00109" height="275.00048" id="svg_13" stroke="#000"/>
  <rect fill="#fff" stroke-width="10" x="127.50026" y="137.50024" width="565.00096" height="231.2504" id="svg_14" stroke="#000"/>
  <text style="cursor: move;" transform="matrix(6.76189 0 0 7.06107 -1228.32 -2183.67)" stroke="#000" xml:space="preserve" text-anchor="start" font-family="'Spartan'" font-size="24" id="svg_3" y="353.47497" x="214.70381" fill="#000000">00:00</text>
 </g>

</svg>